<?xml version="1.0" encoding="UTF-8"?>
<!DOCTYPE svg PUBLIC "-//W3C//DTD SVG 1.1//EN" "http://www.w3.org/Graphics/SVG/1.1/DTD/svg11.dtd">
<svg xmlns="http://www.w3.org/2000/svg" version="1.1" width="500px" height="500px" style="shape-rendering:geometricPrecision; text-rendering:geometricPrecision; image-rendering:optimizeQuality; fill-rule:evenodd; clip-rule:evenodd" xmlns:xlink="http://www.w3.org/1999/xlink">
<g><path style="opacity:1" fill="#fdf304" d="M 9.5,149.5 C 19.1667,149.5 28.8333,149.5 38.5,149.5C 76.5,149.5 114.5,149.5 152.5,149.5C 152.5,166.5 152.5,183.5 152.5,200.5C 136.5,200.5 120.5,200.5 104.5,200.5C 104.5,243.833 104.5,287.167 104.5,330.5C 89.2218,331.608 73.5551,331.775 57.5,331C 57.4323,323.71 57.4323,316.21 57.5,308.5C 57.5,272.5 57.5,236.5 57.5,200.5C 41.5,200.5 25.5,200.5 9.5,200.5C 9.5,183.5 9.5,166.5 9.5,149.5 Z"/></g>
<g><path style="opacity:1" fill="#04eefa" d="M 204.5,153.5 C 205.038,167.83 205.372,182.33 205.5,197C 205.499,207.855 204.832,218.355 203.5,228.5C 189.167,228.5 174.833,228.5 160.5,228.5C 160.5,202.167 160.5,175.833 160.5,149.5C 175.167,149.5 189.833,149.5 204.5,149.5C 204.5,150.833 204.5,152.167 204.5,153.5 Z"/></g>
<g><path style="opacity:1" fill="#03f2fe" d="M 425.5,244.5 C 440.167,244.5 454.833,244.5 469.5,244.5C 469.5,247.167 469.5,249.833 469.5,252.5C 459.833,252.5 450.167,252.5 440.5,252.5C 424.167,252.5 407.833,252.5 391.5,252.5C 390.292,253.234 388.959,253.567 387.5,253.5C 387.64,251.876 386.973,250.71 385.5,250C 386.308,249.692 386.975,249.192 387.5,248.5C 386.833,247.5 386.167,246.5 385.5,245.5C 386.428,244.232 386.595,242.899 386,241.5C 385,240.167 384,240.167 383,241.5C 383.383,243.438 383.216,245.104 382.5,246.5C 378.048,245.318 377.714,243.818 381.5,242C 380.382,240.926 379.382,239.76 378.5,238.5C 377.604,239.506 376.938,239.506 376.5,238.5C 377.34,237.265 378.34,236.265 379.5,235.5C 379.5,206.833 379.5,178.167 379.5,149.5C 394.5,149.5 409.5,149.5 424.5,149.5C 424.168,181.338 424.502,213.004 425.5,244.5 Z"/></g>
<g><path style="opacity:1" fill="#faf104" d="M 299.5,150.5 C 303.24,150.857 306.573,152.19 309.5,154.5C 314.931,159.922 319.931,165.588 324.5,171.5C 324.427,173.027 325.094,174.027 326.5,174.5C 328.527,175.861 330.194,177.527 331.5,179.5C 331.738,181.404 332.738,182.738 334.5,183.5C 335.833,184.833 337.167,186.167 338.5,187.5C 338.738,189.404 339.738,190.738 341.5,191.5C 342.834,193.196 344.168,194.862 345.5,196.5C 345.5,197.5 345.5,198.5 345.5,199.5C 344.488,200.872 343.488,202.205 342.5,203.5C 340.973,203.427 339.973,204.094 339.5,205.5C 337.167,207.167 335.167,209.167 333.5,211.5C 331.735,214.029 329.735,216.362 327.5,218.5C 328.694,219.799 329.694,221.132 330.5,222.5C 331.419,225.089 333.086,227.089 335.5,228.5C 336.5,228.833 337.167,229.5 337.5,230.5C 337.5,232.5 338.5,233.5 340.5,233.5C 340.427,235.027 341.094,236.027 342.5,236.5C 344.833,238.167 346.833,240.167 348.5,242.5C 349.419,245.089 351.086,247.089 353.5,248.5C 355.833,250.167 357.833,252.167 359.5,254.5C 360.419,257.089 362.086,259.089 364.5,260.5C 366.167,261.5 367.5,262.833 368.5,264.5C 369.08,266.749 370.413,268.415 372.5,269.5C 375.5,271.833 378.167,274.5 380.5,277.5C 395.129,279.484 410.129,280.15 425.5,279.5C 425.5,291.833 425.5,304.167 425.5,316.5C 425.197,321.43 425.531,326.263 426.5,331C 416.59,331.18 406.756,331.68 397,332.5C 394.948,331.207 392.781,330.207 390.5,329.5C 389.73,327.065 388.063,325.731 385.5,325.5C 384.833,325.5 384.5,325.167 384.5,324.5C 384.167,322.167 382.833,320.833 380.5,320.5C 378.833,318.5 377.167,316.5 375.5,314.5C 375.5,312.5 374.5,311.5 372.5,311.5C 371.5,310.167 370.5,308.833 369.5,307.5C 369.5,306.167 368.833,305.5 367.5,305.5C 365.833,303.5 364.167,301.5 362.5,299.5C 362.5,298.167 361.833,297.5 360.5,297.5C 359.167,295.833 357.833,294.167 356.5,292.5C 356.512,289.858 355.179,288.525 352.5,288.5C 350.618,285.377 348.285,282.711 345.5,280.5C 345.5,279.167 344.833,278.5 343.5,278.5C 342.662,278.158 342.328,277.492 342.5,276.5C 342.5,275.167 341.833,274.5 340.5,274.5C 338.833,272.5 337.167,270.5 335.5,268.5C 335.573,266.973 334.906,265.973 333.5,265.5C 330.167,262.833 327.167,259.833 324.5,256.5C 324.573,254.973 323.906,253.973 322.5,253.5C 319.608,250.729 316.942,247.729 314.5,244.5C 314.5,242.5 313.5,241.5 311.5,241.5C 309.031,238.856 306.698,236.023 304.5,233C 303.563,232.308 302.897,232.475 302.5,233.5C 302.5,265.833 302.5,298.167 302.5,330.5C 286.833,330.5 271.167,330.5 255.5,330.5C 255.5,290.833 255.5,251.167 255.5,211.5C 264.5,211.5 273.5,211.5 282.5,211.5C 285.482,211.584 288.482,211.084 291.5,210C 294.056,208.945 295.723,207.112 296.5,204.5C 297.657,196.344 297.823,188.01 297,179.5C 296.623,178.058 295.79,177.058 294.5,176.5C 293.599,174.273 291.933,173.273 289.5,173.5C 263.569,173.436 237.736,173.436 212,173.5C 211.503,170.854 211.336,168.187 211.5,165.5C 211.5,160.5 211.5,155.5 211.5,150.5C 240.833,150.5 270.167,150.5 299.5,150.5 Z"/></g>
<g><path style="opacity:0.043" fill="#39350e" d="M 299.5,150.5 C 270.167,150.5 240.833,150.5 211.5,150.5C 211.5,155.5 211.5,160.5 211.5,165.5C 210.512,160.36 210.179,155.026 210.5,149.5C 240.338,149.169 270.005,149.502 299.5,150.5 Z"/></g>
<g><path style="opacity:0.416" fill="#444110" d="M 324.5,171.5 C 325.906,171.973 326.573,172.973 326.5,174.5C 325.094,174.027 324.427,173.027 324.5,171.5 Z"/></g>
<g><path style="opacity:0.047" fill="#312e14" d="M 289.5,173.5 C 291.933,173.273 293.599,174.273 294.5,176.5C 292.566,175.89 290.899,174.89 289.5,173.5 Z"/></g>
<g><path style="opacity:0.115" fill="#3f3c0e" d="M 264.5,179.5 C 247.167,179.5 229.833,179.5 212.5,179.5C 212.167,179.5 211.833,179.5 211.5,179.5C 212.134,178.053 213.301,177.387 215,177.5C 231.651,178.132 248.151,178.798 264.5,179.5 Z"/></g>
<g><path style="opacity:1" fill="#f7ed06" d="M 254.5,201.5 C 240.677,200.504 226.677,200.171 212.5,200.5C 212.5,193.5 212.5,186.5 212.5,179.5C 229.833,179.5 247.167,179.5 264.5,179.5C 266.792,178.532 268.959,178.198 271,178.5C 276.751,179.31 282.584,179.81 288.5,180C 289.333,180.833 290.167,181.667 291,182.5C 291.336,189.119 291.503,195.619 291.5,202C 290.377,203.044 289.044,203.71 287.5,204C 276.505,204.5 265.505,204.667 254.5,204.5C 254.5,203.5 254.5,202.5 254.5,201.5 Z"/></g>
<g><path style="opacity:0.667" fill="#565213" d="M 331.5,179.5 C 333.262,180.262 334.262,181.596 334.5,183.5C 332.738,182.738 331.738,181.404 331.5,179.5 Z"/></g>
<g><path style="opacity:0.78" fill="#176970" d="M 204.5,153.5 C 204.5,152.167 204.5,150.833 204.5,149.5C 189.833,149.5 175.167,149.5 160.5,149.5C 160.5,175.833 160.5,202.167 160.5,228.5C 174.833,228.5 189.167,228.5 203.5,228.5C 196.341,229.166 189.008,229.5 181.5,229.5C 173.674,229.653 166.007,229.153 158.5,228C 158.546,201.463 158.546,174.963 158.5,148.5C 173.745,148.824 188.911,148.491 204,147.5C 205.707,149.483 205.874,151.483 204.5,153.5 Z"/></g>
<g><path style="opacity:0.416" fill="#3e3a0f" d="M 338.5,187.5 C 340.262,188.262 341.262,189.596 341.5,191.5C 339.738,190.738 338.738,189.404 338.5,187.5 Z"/></g>
<g><path style="opacity:0.029" fill="#100f12" d="M 294.5,176.5 C 295.79,177.058 296.623,178.058 297,179.5C 297.823,188.01 297.657,196.344 296.5,204.5C 296.666,196.493 296.5,188.493 296,180.5C 295.209,179.255 294.709,177.922 294.5,176.5 Z"/></g>
<g><path style="opacity:0.8" fill="#524e11" d="M 345.5,196.5 C 348.167,197.5 348.167,198.5 345.5,199.5C 345.5,198.5 345.5,197.5 345.5,196.5 Z"/></g>
<g><path style="opacity:0.748" fill="#645f0f" d="M 9.5,149.5 C 9.5,166.5 9.5,183.5 9.5,200.5C 25.5,200.5 41.5,200.5 57.5,200.5C 57.5,236.5 57.5,272.5 57.5,308.5C 56.6675,273.002 56.1675,237.336 56,201.5C 40.3333,202.833 24.6667,202.833 9,201.5C 8.1715,183.995 8.33817,166.662 9.5,149.5 Z"/></g>
<g><path style="opacity:0.776" fill="#77710e" d="M 38.5,149.5 C 76.663,148.501 114.996,148.168 153.5,148.5C 153.5,166.167 153.5,183.833 153.5,201.5C 137.611,202.747 121.777,202.747 106,201.5C 105.833,244.669 105.333,287.669 104.5,330.5C 104.5,287.167 104.5,243.833 104.5,200.5C 120.5,200.5 136.5,200.5 152.5,200.5C 152.5,183.5 152.5,166.5 152.5,149.5C 114.5,149.5 76.5,149.5 38.5,149.5 Z"/></g>
<g><path style="opacity:0.821" fill="#716c18" d="M 211.5,179.5 C 211.833,179.5 212.167,179.5 212.5,179.5C 212.5,186.5 212.5,193.5 212.5,200.5C 226.677,200.171 240.677,200.504 254.5,201.5C 240.19,202.779 225.857,202.779 211.5,201.5C 210.345,194.013 210.345,186.68 211.5,179.5 Z"/></g>
<g><path style="opacity:0.688" fill="#0a969e" d="M 425.5,243.5 C 425.5,243.833 425.5,244.167 425.5,244.5C 424.502,213.004 424.168,181.338 424.5,149.5C 409.5,149.5 394.5,149.5 379.5,149.5C 379.5,178.167 379.5,206.833 379.5,235.5C 378.508,235.672 377.842,235.338 377.5,234.5C 378.463,206.197 378.796,177.53 378.5,148.5C 394.167,148.5 409.833,148.5 425.5,148.5C 425.5,180.167 425.5,211.833 425.5,243.5 Z"/></g>
<g><path style="opacity:0.008" fill="#27230e" d="M 342.5,203.5 C 342.027,204.906 341.027,205.573 339.5,205.5C 339.973,204.094 340.973,203.427 342.5,203.5 Z"/></g>
<g><path style="opacity:1" fill="#04ebf6" d="M 374.5,231.5 C 374.833,232.5 375.5,233.167 376.5,233.5C 376.5,234.167 376.833,234.5 377.5,234.5C 377.842,235.338 378.508,235.672 379.5,235.5C 378.34,236.265 377.34,237.265 376.5,238.5C 376.938,239.506 377.604,239.506 378.5,238.5C 379.382,239.76 380.382,240.926 381.5,242C 377.714,243.818 378.048,245.318 382.5,246.5C 383.216,245.104 383.383,243.438 383,241.5C 384,240.167 385,240.167 386,241.5C 386.595,242.899 386.428,244.232 385.5,245.5C 386.167,246.5 386.833,247.5 387.5,248.5C 386.975,249.192 386.308,249.692 385.5,250C 386.973,250.71 387.64,251.876 387.5,253.5C 388.959,253.567 390.292,253.234 391.5,252.5C 391.5,252.833 391.5,253.167 391.5,253.5C 391.5,254.833 391.5,256.167 391.5,257.5C 405.323,258.496 419.323,258.829 433.5,258.5C 445.5,258.5 457.5,258.5 469.5,258.5C 469.5,263.5 469.5,268.5 469.5,273.5C 455.5,273.5 441.5,273.5 427.5,273.5C 424.833,273.5 422.167,273.5 419.5,273.5C 418.5,274.833 417.5,274.833 416.5,273.5C 405.782,273.787 395.115,273.454 384.5,272.5C 370.665,257.491 356.831,242.491 343,227.5C 340.833,224.5 338.667,221.5 336.5,218.5C 340.806,213.527 345.473,208.86 350.5,204.5C 358.522,213.52 366.522,222.52 374.5,231.5 Z"/></g>
<g><path style="opacity:0.153" fill="#3c390d" d="M 282.5,211.5 C 273.5,211.5 264.5,211.5 255.5,211.5C 255.167,211.5 254.833,211.5 254.5,211.5C 255.261,210.609 256.261,209.942 257.5,209.5C 265.962,210.139 274.296,210.806 282.5,211.5 Z"/></g>
<g><path style="opacity:0.008" fill="#2d270f" d="M 339.5,205.5 C 338.5,208.5 336.5,210.5 333.5,211.5C 335.167,209.167 337.167,207.167 339.5,205.5 Z"/></g>
<g><path style="opacity:0.827" fill="#554f14" d="M 330.5,222.5 C 332.914,223.911 334.581,225.911 335.5,228.5C 333.086,227.089 331.419,225.089 330.5,222.5 Z"/></g>
<g><path style="opacity:0.941" fill="#726b15" d="M 337.5,230.5 C 338.833,231.167 339.833,232.167 340.5,233.5C 338.5,233.5 337.5,232.5 337.5,230.5 Z"/></g>
<g><path style="opacity:0.02" fill="#0c171b" d="M 374.5,231.5 C 375.833,231.5 376.5,232.167 376.5,233.5C 375.5,233.167 374.833,232.5 374.5,231.5 Z"/></g>
<g><path style="opacity:0.655" fill="#5b5614" d="M 340.5,233.5 C 341.906,233.973 342.573,234.973 342.5,236.5C 341.094,236.027 340.427,235.027 340.5,233.5 Z"/></g>
<g><path style="opacity:0.373" fill="#3d3a11" d="M 311.5,241.5 C 313.5,241.5 314.5,242.5 314.5,244.5C 313.167,243.833 312.167,242.833 311.5,241.5 Z"/></g>
<g><path style="opacity:0.651" fill="#494513" d="M 348.5,242.5 C 350.914,243.911 352.581,245.911 353.5,248.5C 351.086,247.089 349.419,245.089 348.5,242.5 Z"/></g>
<g><path style="opacity:0.115" fill="#093235" d="M 425.5,244.5 C 425.5,244.167 425.5,243.833 425.5,243.5C 440.5,243.5 455.5,243.5 470.5,243.5C 470.223,246.448 470.556,249.281 471.5,252C 470.744,253.38 470.078,253.547 469.5,252.5C 469.5,249.833 469.5,247.167 469.5,244.5C 454.833,244.5 440.167,244.5 425.5,244.5 Z"/></g>
<g><path style="opacity:1" fill="#03f0fb" d="M 127.5,247.5 C 161.5,247.5 195.5,247.5 229.5,247.5C 231.556,248.216 233.723,248.883 236,249.5C 236.5,256.492 236.666,263.492 236.5,270.5C 225.833,270.5 215.167,270.5 204.5,270.5C 204.5,290.5 204.5,310.5 204.5,330.5C 191.931,331.821 179.265,331.821 166.5,330.5C 164.5,330.5 162.5,330.5 160.5,330.5C 160.5,310.167 160.5,289.833 160.5,269.5C 149.5,269.5 138.5,269.5 127.5,269.5C 127.5,262.167 127.5,254.833 127.5,247.5 Z"/></g>
<g><path style="opacity:0.033" fill="#1f272b" d="M 391.5,253.5 C 391.5,253.167 391.5,252.833 391.5,252.5C 407.833,252.5 424.167,252.5 440.5,252.5C 425.431,253.174 410.265,253.841 395,254.5C 393.989,253.663 392.822,253.33 391.5,253.5 Z"/></g>
<g><path style="opacity:0.214" fill="#094247" d="M 127.5,247.5 C 127.5,254.833 127.5,262.167 127.5,269.5C 127.5,269.833 127.5,270.167 127.5,270.5C 126.522,270.189 125.855,269.522 125.5,268.5C 126.134,261.37 126.801,254.37 127.5,247.5 Z"/></g>
<g><path style="opacity:0.012" fill="#2e2c0f" d="M 322.5,253.5 C 323.906,253.973 324.573,254.973 324.5,256.5C 323.094,256.027 322.427,255.027 322.5,253.5 Z"/></g>
<g><path style="opacity:0.635" fill="#4c4713" d="M 359.5,254.5 C 361.914,255.911 363.581,257.911 364.5,260.5C 362.086,259.089 360.419,257.089 359.5,254.5 Z"/></g>
<g><path style="opacity:0.298" fill="#1b5357" d="M 433.5,257.5 C 433.5,257.833 433.5,258.167 433.5,258.5C 419.323,258.829 405.323,258.496 391.5,257.5C 405.572,257.465 419.572,257.465 433.5,257.5 Z"/></g>
<g><path style="opacity:0.624" fill="#248d93" d="M 469.5,257.5 C 469.5,257.833 469.5,258.167 469.5,258.5C 457.5,258.5 445.5,258.5 433.5,258.5C 433.5,258.167 433.5,257.833 433.5,257.5C 445.441,257.273 457.441,257.273 469.5,257.5 Z"/></g>
<g><path style="opacity:0.389" fill="#123d40" d="M 469.5,273.5 C 469.5,268.5 469.5,263.5 469.5,258.5C 469.5,258.167 469.5,257.833 469.5,257.5C 470.878,259.807 471.545,262.974 471.5,267C 471.536,269.63 471.036,272.13 470,274.5C 469.601,274.272 469.435,273.938 469.5,273.5 Z"/></g>
<g><path style="opacity:0.49" fill="#464112" d="M 368.5,264.5 C 370.587,265.585 371.92,267.251 372.5,269.5C 370.413,268.415 369.08,266.749 368.5,264.5 Z"/></g>
<g><path style="opacity:0.02" fill="#333010" d="M 333.5,265.5 C 334.906,265.973 335.573,266.973 335.5,268.5C 334.094,268.027 333.427,267.027 333.5,265.5 Z"/></g>
<g><path style="opacity:0.042" fill="#0d191a" d="M 384.5,272.5 C 395.115,273.454 405.782,273.787 416.5,273.5C 407.475,274.204 398.308,274.871 389,275.5C 387.019,275.101 385.519,274.101 384.5,272.5 Z"/></g>
<g><path style="opacity:0.013" fill="#07080a" d="M 419.5,273.5 C 422.167,273.5 424.833,273.5 427.5,273.5C 426.5,274.167 425.5,274.833 424.5,275.5C 422.597,275.204 420.93,274.537 419.5,273.5 Z"/></g>
<g><path style="opacity:0.424" fill="#3e3910" d="M 340.5,274.5 C 341.833,274.5 342.5,275.167 342.5,276.5C 341.5,276.167 340.833,275.5 340.5,274.5 Z"/></g>
<g><path style="opacity:0.016" fill="#070706" d="M 424.5,275.5 C 427.137,277.154 426.803,277.654 423.5,277C 424.056,276.617 424.389,276.117 424.5,275.5 Z"/></g>
<g><path style="opacity:0.353" fill="#373410" d="M 343.5,278.5 C 344.833,278.5 345.5,279.167 345.5,280.5C 344.5,280.167 343.833,279.5 343.5,278.5 Z"/></g>
<g><path style="opacity:0.065" fill="#28250a" d="M 380.5,277.5 C 392.073,277.508 403.739,277.675 415.5,278C 419.356,278.177 423.023,278.677 426.5,279.5C 426.167,279.5 425.833,279.5 425.5,279.5C 410.129,280.15 395.129,279.484 380.5,277.5 Z"/></g>
<g><path style="opacity:0.721" fill="#8a8410" d="M 254.5,211.5 C 254.833,211.5 255.167,211.5 255.5,211.5C 255.5,251.167 255.5,290.833 255.5,330.5C 255.167,330.5 254.833,330.5 254.5,330.5C 254.476,290.765 254.476,251.099 254.5,211.5 Z"/></g>
<g><path style="opacity:0.148" fill="#0a2a2d" d="M 204.5,330.5 C 204.5,310.5 204.5,290.5 204.5,270.5C 215.167,270.5 225.833,270.5 236.5,270.5C 236.666,263.492 236.5,256.492 236,249.5C 233.723,248.883 231.556,248.216 229.5,247.5C 232.982,245.648 235.815,246.314 238,249.5C 237.616,256.878 237.449,264.211 237.5,271.5C 226.833,271.5 216.167,271.5 205.5,271.5C 205.83,291.34 205.497,311.007 204.5,330.5 Z"/></g>
<g><path style="opacity:1" fill="#868015" d="M 352.5,288.5 C 355.179,288.525 356.512,289.858 356.5,292.5C 354.833,291.5 353.5,290.167 352.5,288.5 Z"/></g>
<g><path style="opacity:0.776" fill="#0ea1ab" d="M 127.5,269.5 C 138.5,269.5 149.5,269.5 160.5,269.5C 160.5,289.833 160.5,310.167 160.5,330.5C 162.5,330.5 164.5,330.5 166.5,330.5C 163.822,331.909 161.156,331.743 158.5,330C 159.258,310.739 159.592,291.406 159.5,272C 148.689,270.52 138.022,270.02 127.5,270.5C 127.5,270.167 127.5,269.833 127.5,269.5 Z"/></g>
<g><path style="opacity:0.647" fill="#4f4b14" d="M 360.5,297.5 C 361.833,297.5 362.5,298.167 362.5,299.5C 361.5,299.167 360.833,298.5 360.5,297.5 Z"/></g>
<g><path style="opacity:0.346" fill="#585407" d="M 302.5,233.5 C 303.498,265.996 303.832,298.662 303.5,331.5C 286.991,331.83 270.658,331.496 254.5,330.5C 254.833,330.5 255.167,330.5 255.5,330.5C 271.167,330.5 286.833,330.5 302.5,330.5C 302.5,298.167 302.5,265.833 302.5,233.5 Z"/></g>
<g><path style="opacity:0.655" fill="#524e14" d="M 367.5,305.5 C 368.833,305.5 369.5,306.167 369.5,307.5C 368.5,307.167 367.833,306.5 367.5,305.5 Z"/></g>
<g><path style="opacity:0.26" fill="#524f0b" d="M 425.5,279.5 C 425.833,279.5 426.167,279.5 426.5,279.5C 426.59,281.696 426.923,283.863 427.5,286C 426.892,296.32 426.225,306.486 425.5,316.5C 425.5,304.167 425.5,291.833 425.5,279.5 Z"/></g>
<g><path style="opacity:0.49" fill="#454112" d="M 372.5,311.5 C 374.5,311.5 375.5,312.5 375.5,314.5C 374.167,313.833 373.167,312.833 372.5,311.5 Z"/></g>
<g><path style="opacity:0.635" fill="#433f12" d="M 380.5,320.5 C 382.833,320.833 384.167,322.167 384.5,324.5C 382.833,323.5 381.5,322.167 380.5,320.5 Z"/></g>
<g><path style="opacity:1" fill="#a49e0f" d="M 385.5,325.5 C 388.063,325.731 389.73,327.065 390.5,329.5C 388.251,328.92 386.585,327.587 385.5,325.5 Z"/></g>
</svg>
